<svg width="32" height="32" viewBox="0 0 32 32" fill="none" xmlns="http://www.w3.org/2000/svg">
<g clip-path="url(#clip0_2715_1758)">
<rect width="32" height="32" rx="4" fill="#007AFF"/>
<path fill-rule="evenodd" clip-rule="evenodd" d="M-3.24323 26.7025V19.1231C6.23502 19.1231 12.9189 3.78381 17.5676 3.78381C25.027 3.78381 15.7297 18.1622 16.9189 18.1622C18.3243 18.1622 21.0001 13.0001 25.0001 13.0001C28.5001 13.0001 25.0001 19.0001 28.0001 19.0001C32.419 19.0001 35.6216 14.9717 35.6216 8.54036H37.3514C37.3514 15.4461 32.5949 23.8919 25.027 23.8919C20.4865 23.8919 25.5001 15.5001 24.0001 15.5001C22.0001 15.5001 17.01 24.5 13.5001 24.5C5.75905 24.5 21.419 8.00012 18.5001 8.00012C15.5811 8.00012 6.44963 26.7025 -3.24323 26.7025Z" fill="white"/>
</g>
<defs>
<clipPath id="clip0_2715_1758">
<rect width="32" height="32" rx="4" fill="white"/>
</clipPath>
</defs>
</svg>
