<svg width="1158" height="1158" viewBox="0 0 1158 1158" fill="none" xmlns="http://www.w3.org/2000/svg">
<g opacity="0.1">
<line x1="579.393" y1="58.3371" x2="579.393" y2="578.067" stroke="#055ABA" stroke-width="2.65169"/>
<line x1="839.081" y1="127.943" x2="579.216" y2="578.73" stroke="#055ABA" stroke-width="2.65169"/>
<line x1="1029.3" y1="317.942" x2="579.028" y2="578.699" stroke="#055ABA" stroke-width="2.65169"/>
<line x1="1099.2" y1="577.549" x2="578.881" y2="578.58" stroke="#055ABA" stroke-width="2.65169"/>
<line x1="1030.11" y1="837.374" x2="578.814" y2="578.402" stroke="#055ABA" stroke-width="2.65169"/>
<line x1="840.492" y1="1027.97" x2="578.844" y2="578.215" stroke="#055ABA" stroke-width="2.65169"/>
<line x1="578.72" y1="1098.38" x2="581.269" y2="578.057" stroke="#055ABA" stroke-width="2.65169"/>
<line x1="321.063" y1="1029.81" x2="579.141" y2="578" stroke="#055ABA" stroke-width="2.65169"/>
<line x1="130.093" y1="840.569" x2="579.328" y2="578.03" stroke="#055ABA" stroke-width="2.65169"/>
<line x1="59.1591" y1="581.24" x2="579.475" y2="578.149" stroke="#055ABA" stroke-width="2.65169"/>
<line x1="127.221" y1="321.143" x2="579.544" y2="578.326" stroke="#055ABA" stroke-width="2.65169"/>
<line x1="316.087" y1="129.799" x2="579.514" y2="578.513" stroke="#055ABA" stroke-width="2.65169"/>
</g>
<g filter="url(#filter0_d_6207_2404)">
<circle cx="579.393" cy="579.393" r="26.5169" fill="#055ABA" fill-opacity="0.24" shape-rendering="crispEdges"/>
</g>
<g filter="url(#filter1_d_6207_2404)">
<circle cx="579.393" cy="579.393" r="5.30337" fill="#055ABA"/>
</g>
<circle cx="579.213" cy="578.751" r="562.82" fill="url(#paint0_radial_6207_2404)"/>
<circle cx="579.213" cy="578.751" r="562.157" stroke="#055ABA" stroke-opacity="0.24" stroke-width="1.32584"/>
<circle cx="578.73" cy="578.73" r="520.393" fill="url(#paint1_radial_6207_2404)"/>
<circle cx="578.73" cy="578.73" r="519.73" stroke="#055ABA" stroke-opacity="0.24" stroke-width="1.32584"/>
<circle cx="578.73" cy="578.73" r="381.18" fill="url(#paint2_radial_6207_2404)"/>
<circle cx="578.73" cy="578.73" r="380.517" stroke="#055ABA" stroke-opacity="0.24" stroke-width="1.32584"/>
<circle cx="579.393" cy="579.393" r="253.236" fill="url(#paint3_radial_6207_2404)"/>
<circle cx="579.393" cy="579.393" r="252.573" stroke="#055ABA" stroke-opacity="0.24" stroke-width="1.32584"/>
<circle cx="578.731" cy="578.73" r="137.225" fill="url(#paint4_radial_6207_2404)"/>
<circle cx="578.731" cy="578.73" r="136.562" stroke="#055ABA" stroke-opacity="0.24" stroke-width="1.32584"/>
<circle cx="579.393" cy="441.506" r="5.96629" fill="#041134" stroke="#055ABA" stroke-width="1.32584"/>
<circle cx="579.393" cy="326.157" r="5.96629" fill="#041134" stroke="#055ABA" stroke-width="1.32584"/>
<circle cx="579.393" cy="197.551" r="5.96629" fill="#041134" stroke="#055ABA" stroke-width="1.32584"/>
<circle cx="579.393" cy="58.3371" r="5.96629" fill="#041134" stroke="#055ABA" stroke-width="1.32584"/>
<circle cx="580.719" cy="1100.45" r="5.96629" fill="#041134" stroke="#055ABA" stroke-width="1.32584"/>
<circle cx="580.719" cy="959.91" r="5.96629" fill="#041134" stroke="#055ABA" stroke-width="1.32584"/>
<circle cx="580.719" cy="832.629" r="5.96629" fill="#041134" stroke="#055ABA" stroke-width="1.32584"/>
<circle cx="580.719" cy="717.281" r="5.96629" fill="#041134" stroke="#055ABA" stroke-width="1.32584"/>
<circle cx="58.3371" cy="578.068" r="5.96629" transform="rotate(90 58.3371 578.068)" fill="#041134" stroke="#055ABA" stroke-width="1.32584"/>
<circle cx="198.876" cy="578.068" r="5.96629" transform="rotate(90 198.876 578.068)" fill="#041134" stroke="#055ABA" stroke-width="1.32584"/>
<circle cx="326.157" cy="578.068" r="5.96629" transform="rotate(90 326.157 578.068)" fill="#041134" stroke="#055ABA" stroke-width="1.32584"/>
<circle cx="441.506" cy="578.068" r="5.96629" transform="rotate(90 441.506 578.068)" fill="#041134" stroke="#055ABA" stroke-width="1.32584"/>
<circle cx="715.955" cy="578.068" r="5.96629" transform="rotate(90 715.955 578.068)" fill="#041134" stroke="#055ABA" stroke-width="1.32584"/>
<circle cx="832.629" cy="578.067" r="5.96629" transform="rotate(90 832.629 578.067)" fill="#041134" stroke="#055ABA" stroke-width="1.32584"/>
<circle cx="959.91" cy="578.067" r="5.96629" transform="rotate(90 959.91 578.067)" fill="#041134" stroke="#055ABA" stroke-width="1.32584"/>
<circle cx="1099.12" cy="578.068" r="5.96629" transform="rotate(90 1099.12 578.068)" fill="#041134" stroke="#055ABA" stroke-width="1.32584"/>
<line x1="580.056" y1="2.89772e-08" x2="580.056" y2="31.8202" stroke="#055ABA" stroke-width="1.32584"/>
<line x1="578.73" y1="1125.64" x2="578.73" y2="1157.46" stroke="#055ABA" stroke-width="1.32584"/>
<line x1="31.8203" y1="577.404" x2="8.76801e-05" y2="577.404" stroke="#055ABA" stroke-width="1.32584"/>
<line x1="1157.46" y1="578.067" x2="1125.64" y2="578.067" stroke="#055ABA" stroke-width="2.65169"/>
<g filter="url(#filter2_d_6207_2404)">
<circle cx="793.91" cy="201.91" r="36" fill="#002AFE" fill-opacity="0.2" shape-rendering="crispEdges"/>
<circle cx="793.91" cy="201.91" r="35.5" stroke="#002AFE" stroke-opacity="0.2" shape-rendering="crispEdges"/>
</g>
<circle cx="793.91" cy="201.91" r="28" fill="#002AFE" fill-opacity="0.2"/>
<g clip-path="url(#clip0_6207_2404)">
<path fill-rule="evenodd" clip-rule="evenodd" d="M802.918 192.577H802.917C801.118 192.576 799.336 193.323 798.059 194.611C797.392 195.284 796.872 196.087 796.53 196.97L795.74 199.011L793.585 198.635C793.364 198.596 793.141 198.577 792.918 198.577C792.128 198.577 791.358 198.823 790.715 199.281C789.826 199.915 789.205 200.834 789.101 202.095C789.043 202.801 789.182 203.509 789.501 204.141C789.821 204.773 790.31 205.304 790.913 205.675C791.517 206.046 792.211 206.243 792.92 206.243H802.918C804.73 206.243 806.468 205.523 807.75 204.242C809.031 202.96 809.751 201.222 809.751 199.41C809.751 197.598 809.031 195.86 807.75 194.578C806.468 193.297 804.73 192.577 802.918 192.577Z" fill="#055ABA"/>
<path d="M801.127 188.693C799.346 186.911 796.93 185.91 794.41 185.91C791.891 185.909 789.429 186.946 787.657 188.734C786.732 189.668 786.009 190.782 785.535 192.008C785.163 191.943 784.787 191.91 784.41 191.91C783.066 191.91 781.755 192.329 780.66 193.109C779.207 194.144 778.112 195.743 777.936 197.875C777.837 199.073 778.072 200.274 778.614 201.345C779.156 202.417 779.985 203.317 781.008 203.947C782.031 204.576 783.209 204.909 784.41 204.91H786.921C786.523 203.953 786.358 202.913 786.444 201.875C786.62 199.743 787.715 198.144 789.168 197.109C790.263 196.329 791.574 195.91 792.918 195.91C793.295 195.91 793.671 195.943 794.043 196.008C794.517 194.782 795.24 193.668 796.164 192.734C797.762 191.122 799.921 190.12 802.177 189.94C801.865 189.498 801.515 189.08 801.127 188.693Z" fill="#055ABA"/>
<path d="M784.743 204.466L780.743 210.466C780.67 210.575 780.576 210.669 780.467 210.742C780.358 210.815 780.235 210.866 780.106 210.892C779.846 210.944 779.576 210.89 779.355 210.743C779.134 210.596 778.981 210.367 778.929 210.107C778.877 209.847 778.931 209.576 779.078 209.356L783.078 203.356C783.225 203.135 783.454 202.982 783.714 202.93C783.974 202.877 784.244 202.931 784.465 203.078C784.686 203.225 784.839 203.454 784.891 203.714C784.943 203.975 784.89 204.245 784.743 204.466Z" fill="#055ABA"/>
<path d="M802.743 209.466L798.743 215.466C798.67 215.575 798.576 215.669 798.467 215.742C798.358 215.815 798.235 215.866 798.106 215.892C797.846 215.944 797.576 215.89 797.355 215.743C797.134 215.596 796.981 215.367 796.929 215.107C796.877 214.847 796.931 214.576 797.078 214.356L801.078 208.356C801.225 208.135 801.454 207.982 801.714 207.93C801.974 207.877 802.244 207.931 802.465 208.078C802.686 208.225 802.839 208.454 802.891 208.714C802.943 208.975 802.89 209.245 802.743 209.466Z" fill="#055ABA"/>
<path d="M793.242 202.91L789.676 208.857H792.91C793.087 208.857 793.261 208.904 793.414 208.993C793.567 209.082 793.693 209.21 793.78 209.364C793.868 209.518 793.912 209.693 793.91 209.87C793.908 210.047 793.859 210.22 793.767 210.372L790.767 215.372C790.7 215.485 790.611 215.583 790.505 215.661C790.399 215.739 790.28 215.796 790.152 215.827C790.025 215.859 789.892 215.866 789.762 215.846C789.632 215.827 789.508 215.782 789.395 215.714C789.282 215.647 789.184 215.558 789.106 215.452C789.028 215.346 788.971 215.227 788.939 215.099C788.908 214.972 788.901 214.839 788.921 214.709C788.94 214.579 788.985 214.455 789.052 214.342L791.144 210.857H787.91C787.733 210.857 787.559 210.81 787.406 210.721C787.253 210.632 787.127 210.504 787.039 210.349C786.952 210.195 786.907 210.021 786.91 209.844C786.912 209.667 786.961 209.494 787.052 209.342L790.91 202.91C791.676 201.41 793.676 201.91 793.242 202.91Z" fill="#055ABA"/>
</g>
<g filter="url(#filter3_d_6207_2404)">
<circle cx="465.91" cy="149.91" r="36" fill="#002AFE" fill-opacity="0.2" shape-rendering="crispEdges"/>
<circle cx="465.91" cy="149.91" r="35.5" stroke="#002AFE" stroke-opacity="0.2" shape-rendering="crispEdges"/>
</g>
<circle cx="465.91" cy="149.91" r="28" fill="#002AFE" fill-opacity="0.22154"/>
<path d="M464.91 138.91V135.91C464.91 135.645 465.015 135.391 465.203 135.203C465.39 135.015 465.644 134.91 465.91 134.91C466.175 134.91 466.429 135.015 466.617 135.203C466.804 135.391 466.91 135.645 466.91 135.91V138.91C466.91 139.175 466.804 139.43 466.617 139.617C466.429 139.805 466.175 139.91 465.91 139.91C465.644 139.91 465.39 139.805 465.203 139.617C465.015 139.43 464.91 139.175 464.91 138.91ZM465.91 141.91C464.327 141.91 462.781 142.379 461.465 143.258C460.15 144.137 459.124 145.387 458.519 146.849C457.913 148.31 457.755 149.919 458.063 151.471C458.372 153.023 459.134 154.448 460.253 155.567C461.372 156.686 462.797 157.448 464.349 157.756C465.901 158.065 467.509 157.907 468.971 157.301C470.433 156.696 471.682 155.67 472.561 154.355C473.44 153.039 473.91 151.492 473.91 149.91C473.907 147.789 473.064 145.756 471.564 144.256C470.064 142.756 468.031 141.912 465.91 141.91ZM457.202 142.618C457.39 142.805 457.644 142.911 457.91 142.911C458.175 142.911 458.43 142.805 458.617 142.618C458.805 142.43 458.91 142.175 458.91 141.91C458.91 141.645 458.805 141.39 458.617 141.203L456.617 139.203C456.43 139.015 456.175 138.91 455.91 138.91C455.644 138.91 455.39 139.015 455.202 139.203C455.015 139.39 454.909 139.645 454.909 139.91C454.909 140.175 455.015 140.43 455.202 140.618L457.202 142.618ZM457.202 157.203L455.202 159.203C455.015 159.39 454.909 159.645 454.909 159.91C454.909 160.175 455.015 160.43 455.202 160.618C455.39 160.805 455.644 160.911 455.91 160.911C456.175 160.911 456.43 160.805 456.617 160.618L458.617 158.618C458.71 158.525 458.784 158.414 458.834 158.293C458.884 158.172 458.91 158.041 458.91 157.91C458.91 157.779 458.884 157.649 458.834 157.527C458.784 157.406 458.71 157.296 458.617 157.203C458.524 157.11 458.414 157.036 458.293 156.986C458.171 156.935 458.041 156.91 457.91 156.91C457.778 156.91 457.648 156.935 457.527 156.986C457.405 157.036 457.295 157.11 457.202 157.203ZM473.91 142.91C474.041 142.91 474.171 142.884 474.293 142.834C474.414 142.784 474.524 142.71 474.617 142.618L476.617 140.618C476.805 140.43 476.91 140.175 476.91 139.91C476.91 139.645 476.805 139.39 476.617 139.203C476.43 139.015 476.175 138.91 475.91 138.91C475.644 138.91 475.39 139.015 475.202 139.203L473.202 141.203C473.062 141.342 472.967 141.521 472.928 141.715C472.889 141.909 472.909 142.11 472.985 142.293C473.061 142.476 473.189 142.632 473.354 142.742C473.518 142.852 473.712 142.91 473.91 142.91ZM474.617 157.203C474.43 157.015 474.175 156.91 473.91 156.91C473.644 156.91 473.39 157.015 473.202 157.203C473.015 157.39 472.909 157.645 472.909 157.91C472.909 158.175 473.015 158.43 473.202 158.618L475.202 160.618C475.295 160.711 475.405 160.784 475.527 160.834C475.648 160.885 475.778 160.911 475.91 160.911C476.041 160.911 476.171 160.885 476.293 160.834C476.414 160.784 476.524 160.711 476.617 160.618C476.71 160.525 476.784 160.414 476.834 160.293C476.884 160.172 476.91 160.041 476.91 159.91C476.91 159.779 476.884 159.649 476.834 159.527C476.784 159.406 476.71 159.296 476.617 159.203L474.617 157.203ZM455.91 149.91C455.91 149.645 455.804 149.391 455.617 149.203C455.429 149.015 455.175 148.91 454.91 148.91H451.91C451.644 148.91 451.39 149.015 451.203 149.203C451.015 149.391 450.91 149.645 450.91 149.91C450.91 150.175 451.015 150.43 451.203 150.617C451.39 150.805 451.644 150.91 451.91 150.91H454.91C455.175 150.91 455.429 150.805 455.617 150.617C455.804 150.43 455.91 150.175 455.91 149.91ZM465.91 159.91C465.644 159.91 465.39 160.015 465.203 160.203C465.015 160.391 464.91 160.645 464.91 160.91V163.91C464.91 164.175 465.015 164.43 465.203 164.617C465.39 164.805 465.644 164.91 465.91 164.91C466.175 164.91 466.429 164.805 466.617 164.617C466.804 164.43 466.91 164.175 466.91 163.91V160.91C466.91 160.645 466.804 160.391 466.617 160.203C466.429 160.015 466.175 159.91 465.91 159.91ZM479.91 148.91H476.91C476.644 148.91 476.39 149.015 476.203 149.203C476.015 149.391 475.91 149.645 475.91 149.91C475.91 150.175 476.015 150.43 476.203 150.617C476.39 150.805 476.644 150.91 476.91 150.91H479.91C480.175 150.91 480.429 150.805 480.617 150.617C480.804 150.43 480.91 150.175 480.91 149.91C480.91 149.645 480.804 149.391 480.617 149.203C480.429 149.015 480.175 148.91 479.91 148.91Z" fill="#055ABA"/>
<g filter="url(#filter4_d_6207_2404)">
<circle cx="303.91" cy="309.91" r="36" fill="#002AFE" fill-opacity="0.2" shape-rendering="crispEdges"/>
<circle cx="303.91" cy="309.91" r="35.5" stroke="#002AFE" stroke-opacity="0.2" shape-rendering="crispEdges"/>
</g>
<circle cx="303.91" cy="309.91" r="28" fill="#002AFE" fill-opacity="0.2"/>
<path d="M304.742 318.465L300.742 324.465C300.669 324.574 300.576 324.668 300.467 324.741C300.357 324.815 300.235 324.865 300.106 324.891C299.846 324.943 299.576 324.89 299.355 324.743C299.134 324.595 298.981 324.367 298.929 324.106C298.877 323.846 298.93 323.576 299.077 323.355L303.077 317.355C303.224 317.134 303.453 316.981 303.714 316.929C303.974 316.877 304.244 316.93 304.465 317.078C304.686 317.225 304.839 317.454 304.891 317.714C304.943 317.974 304.889 318.244 304.742 318.465ZM316.894 304.854C316.752 302.427 315.684 300.146 313.912 298.482C312.139 296.818 309.795 295.897 307.364 295.908C304.933 295.92 302.598 296.864 300.842 298.545C299.085 300.226 298.04 302.517 297.921 304.945C297.906 305.204 297.794 305.448 297.606 305.627C297.418 305.807 297.169 305.908 296.91 305.91H296.835C296.571 305.887 296.326 305.761 296.154 305.56C295.981 305.359 295.893 305.098 295.91 304.834C295.945 304.139 296.042 303.448 296.201 302.77C296.222 302.685 296.219 302.596 296.195 302.512C296.17 302.428 296.124 302.352 296.06 302.291C295.997 302.231 295.919 302.188 295.834 302.167C295.749 302.146 295.66 302.148 295.576 302.173C294.222 302.573 293.035 303.401 292.194 304.535C291.352 305.668 290.902 307.044 290.91 308.455C290.935 312.044 293.925 314.91 297.515 314.91H297.041L294.077 319.355C293.93 319.576 293.877 319.846 293.929 320.106C293.981 320.367 294.134 320.595 294.355 320.743C294.576 320.89 294.846 320.943 295.106 320.891C295.366 320.839 295.595 320.686 295.742 320.465L299.445 314.91H307.41C308.704 314.909 309.984 314.643 311.172 314.13C312.359 313.617 313.43 312.866 314.318 311.925C315.206 310.983 315.892 309.871 316.335 308.655C316.778 307.439 316.968 306.146 316.894 304.854Z" fill="#0C6DE3"/>
<path d="M312.743 316.466L308.743 322.466C308.67 322.575 308.576 322.669 308.467 322.742C308.358 322.815 308.235 322.866 308.106 322.892C307.846 322.944 307.576 322.89 307.355 322.743C307.134 322.596 306.981 322.367 306.929 322.107C306.877 321.847 306.931 321.576 307.078 321.356L311.078 315.356C311.225 315.135 311.454 314.982 311.714 314.93C311.974 314.877 312.244 314.931 312.465 315.078C312.686 315.225 312.839 315.454 312.891 315.714C312.943 315.975 312.89 316.245 312.743 316.466Z" fill="#0C6DE3"/>
<g filter="url(#filter5_d_6207_2404)">
<circle cx="796.91" cy="453.91" r="36" fill="#002AFE" fill-opacity="0.2" shape-rendering="crispEdges"/>
<circle cx="796.91" cy="453.91" r="35.5" stroke="#002AFE" stroke-opacity="0.2" shape-rendering="crispEdges"/>
</g>
<circle cx="796.91" cy="453.91" r="28" fill="#002AFE" fill-opacity="0.2"/>
<path d="M789.91 463.41C789.91 463.707 789.822 463.997 789.657 464.243C789.492 464.49 789.258 464.682 788.984 464.796C788.71 464.909 788.408 464.939 788.117 464.881C787.826 464.823 787.559 464.681 787.349 464.471C787.139 464.261 786.996 463.994 786.939 463.703C786.881 463.412 786.91 463.11 787.024 462.836C787.137 462.562 787.33 462.328 787.576 462.163C787.823 461.998 788.113 461.91 788.41 461.91C788.808 461.91 789.189 462.068 789.47 462.349C789.752 462.631 789.91 463.012 789.91 463.41ZM793.41 465.91C793.113 465.91 792.823 465.998 792.576 466.163C792.33 466.328 792.137 466.562 792.024 466.836C791.91 467.11 791.881 467.412 791.939 467.703C791.996 467.994 792.139 468.261 792.349 468.471C792.559 468.681 792.826 468.823 793.117 468.881C793.408 468.939 793.71 468.909 793.984 468.796C794.258 468.682 794.492 468.49 794.657 468.243C794.822 467.997 794.91 467.707 794.91 467.41C794.91 467.012 794.752 466.631 794.47 466.349C794.189 466.068 793.808 465.91 793.41 465.91ZM802.41 464.91C802.113 464.91 801.823 464.998 801.576 465.163C801.33 465.328 801.137 465.562 801.024 465.836C800.91 466.11 800.881 466.412 800.939 466.703C800.996 466.994 801.139 467.261 801.349 467.471C801.559 467.681 801.826 467.823 802.117 467.881C802.408 467.939 802.71 467.909 802.984 467.796C803.258 467.682 803.492 467.49 803.657 467.243C803.822 466.997 803.91 466.707 803.91 466.41C803.91 466.012 803.752 465.631 803.47 465.349C803.189 465.068 802.808 464.91 802.41 464.91ZM809.894 448.855C809.752 446.428 808.684 444.148 806.912 442.483C805.139 440.819 802.795 439.898 800.364 439.91C797.933 439.922 795.598 440.865 793.842 442.546C792.085 444.227 791.04 446.518 790.921 448.947C790.906 449.206 790.794 449.45 790.606 449.629C790.418 449.808 790.169 449.909 789.91 449.912H789.835C789.571 449.888 789.326 449.762 789.154 449.561C788.981 449.36 788.893 449.1 788.91 448.835C788.945 448.14 789.042 447.449 789.201 446.772C789.222 446.687 789.219 446.598 789.195 446.514C789.17 446.43 789.124 446.354 789.06 446.293C788.997 446.233 788.919 446.19 788.834 446.169C788.749 446.148 788.66 446.15 788.576 446.174C787.222 446.574 786.035 447.403 785.194 448.536C784.352 449.669 783.902 451.045 783.91 452.457C783.935 456.045 786.925 458.912 790.515 458.912H800.41C801.704 458.91 802.984 458.645 804.172 458.131C805.359 457.618 806.43 456.868 807.318 455.926C808.206 454.985 808.892 453.872 809.335 452.657C809.778 451.441 809.968 450.147 809.894 448.855Z" fill="#055ABA"/>
<path d="M792.576 466.163C792.823 465.998 793.113 465.91 793.41 465.91C793.808 465.91 794.189 466.068 794.47 466.349C794.752 466.631 794.91 467.012 794.91 467.41C794.91 467.707 794.822 467.997 794.657 468.243C794.492 468.49 794.258 468.682 793.984 468.796C793.71 468.909 793.408 468.939 793.117 468.881C792.826 468.823 792.559 468.681 792.349 468.471C792.139 468.261 791.996 467.994 791.939 467.703C791.881 467.412 791.91 467.11 792.024 466.836C792.137 466.562 792.33 466.328 792.576 466.163Z" fill="#055ABA"/>
<path d="M796.576 461.163C796.823 460.998 797.113 460.91 797.41 460.91C797.807 460.91 798.189 461.068 798.47 461.349C798.752 461.631 798.91 462.012 798.91 462.41C798.91 462.707 798.822 462.997 798.657 463.243C798.492 463.49 798.258 463.682 797.984 463.796C797.71 463.909 797.408 463.939 797.117 463.881C796.826 463.823 796.559 463.68 796.349 463.471C796.139 463.261 795.996 462.994 795.938 462.703C795.881 462.412 795.91 462.11 796.024 461.836C796.137 461.562 796.33 461.328 796.576 461.163Z" fill="#055ABA"/>
<defs>
<filter id="filter0_d_6207_2404" x="449.328" y="449.328" width="260.13" height="260.13" filterUnits="userSpaceOnUse" color-interpolation-filters="sRGB">
<feFlood flood-opacity="0" result="BackgroundImageFix"/>
<feColorMatrix in="SourceAlpha" type="matrix" values="0 0 0 0 0 0 0 0 0 0 0 0 0 0 0 0 0 0 127 0" result="hardAlpha"/>
<feMorphology radius="46.4045" operator="dilate" in="SourceAlpha" result="effect1_dropShadow_6207_2404"/>
<feOffset/>
<feGaussianBlur stdDeviation="28.5719"/>
<feComposite in2="hardAlpha" operator="out"/>
<feColorMatrix type="matrix" values="0 0 0 0 0.0196078 0 0 0 0 0.352941 0 0 0 0 0.729412 0 0 0 0.24 0"/>
<feBlend mode="normal" in2="BackgroundImageFix" result="effect1_dropShadow_6207_2404"/>
<feBlend mode="normal" in="SourceGraphic" in2="effect1_dropShadow_6207_2404" result="shape"/>
</filter>
<filter id="filter1_d_6207_2404" x="542.119" y="542.119" width="74.5486" height="74.5484" filterUnits="userSpaceOnUse" color-interpolation-filters="sRGB">
<feFlood flood-opacity="0" result="BackgroundImageFix"/>
<feColorMatrix in="SourceAlpha" type="matrix" values="0 0 0 0 0 0 0 0 0 0 0 0 0 0 0 0 0 0 127 0" result="hardAlpha"/>
<feOffset/>
<feGaussianBlur stdDeviation="15.9854"/>
<feComposite in2="hardAlpha" operator="out"/>
<feColorMatrix type="matrix" values="0 0 0 0 0.0196078 0 0 0 0 0.352941 0 0 0 0 0.729412 0 0 0 1 0"/>
<feBlend mode="normal" in2="BackgroundImageFix" result="effect1_dropShadow_6207_2404"/>
<feBlend mode="normal" in="SourceGraphic" in2="effect1_dropShadow_6207_2404" result="shape"/>
</filter>
<filter id="filter2_d_6207_2404" x="743.91" y="151.91" width="100" height="100" filterUnits="userSpaceOnUse" color-interpolation-filters="sRGB">
<feFlood flood-opacity="0" result="BackgroundImageFix"/>
<feColorMatrix in="SourceAlpha" type="matrix" values="0 0 0 0 0 0 0 0 0 0 0 0 0 0 0 0 0 0 127 0" result="hardAlpha"/>
<feOffset/>
<feGaussianBlur stdDeviation="7"/>
<feComposite in2="hardAlpha" operator="out"/>
<feColorMatrix type="matrix" values="0 0 0 0 0 0 0 0 0 0.164706 0 0 0 0 0.996078 0 0 0 0.5 0"/>
<feBlend mode="normal" in2="BackgroundImageFix" result="effect1_dropShadow_6207_2404"/>
<feBlend mode="normal" in="SourceGraphic" in2="effect1_dropShadow_6207_2404" result="shape"/>
</filter>
<filter id="filter3_d_6207_2404" x="415.91" y="99.9101" width="100" height="100" filterUnits="userSpaceOnUse" color-interpolation-filters="sRGB">
<feFlood flood-opacity="0" result="BackgroundImageFix"/>
<feColorMatrix in="SourceAlpha" type="matrix" values="0 0 0 0 0 0 0 0 0 0 0 0 0 0 0 0 0 0 127 0" result="hardAlpha"/>
<feOffset/>
<feGaussianBlur stdDeviation="7"/>
<feComposite in2="hardAlpha" operator="out"/>
<feColorMatrix type="matrix" values="0 0 0 0 0 0 0 0 0 0.164706 0 0 0 0 0.996078 0 0 0 0.5 0"/>
<feBlend mode="normal" in2="BackgroundImageFix" result="effect1_dropShadow_6207_2404"/>
<feBlend mode="normal" in="SourceGraphic" in2="effect1_dropShadow_6207_2404" result="shape"/>
</filter>
<filter id="filter4_d_6207_2404" x="253.91" y="259.91" width="100" height="100" filterUnits="userSpaceOnUse" color-interpolation-filters="sRGB">
<feFlood flood-opacity="0" result="BackgroundImageFix"/>
<feColorMatrix in="SourceAlpha" type="matrix" values="0 0 0 0 0 0 0 0 0 0 0 0 0 0 0 0 0 0 127 0" result="hardAlpha"/>
<feOffset/>
<feGaussianBlur stdDeviation="7"/>
<feComposite in2="hardAlpha" operator="out"/>
<feColorMatrix type="matrix" values="0 0 0 0 0 0 0 0 0 0.164706 0 0 0 0 0.996078 0 0 0 0.5 0"/>
<feBlend mode="normal" in2="BackgroundImageFix" result="effect1_dropShadow_6207_2404"/>
<feBlend mode="normal" in="SourceGraphic" in2="effect1_dropShadow_6207_2404" result="shape"/>
</filter>
<filter id="filter5_d_6207_2404" x="746.91" y="403.91" width="100" height="100" filterUnits="userSpaceOnUse" color-interpolation-filters="sRGB">
<feFlood flood-opacity="0" result="BackgroundImageFix"/>
<feColorMatrix in="SourceAlpha" type="matrix" values="0 0 0 0 0 0 0 0 0 0 0 0 0 0 0 0 0 0 127 0" result="hardAlpha"/>
<feOffset/>
<feGaussianBlur stdDeviation="7"/>
<feComposite in2="hardAlpha" operator="out"/>
<feColorMatrix type="matrix" values="0 0 0 0 0 0 0 0 0 0.164706 0 0 0 0 0.996078 0 0 0 0.5 0"/>
<feBlend mode="normal" in2="BackgroundImageFix" result="effect1_dropShadow_6207_2404"/>
<feBlend mode="normal" in="SourceGraphic" in2="effect1_dropShadow_6207_2404" result="shape"/>
</filter>
<radialGradient id="paint0_radial_6207_2404" cx="0" cy="0" r="1" gradientUnits="userSpaceOnUse" gradientTransform="translate(579.213 578.751) rotate(90) scale(562.82)">
<stop offset="0.882214" stop-color="#055ABA" stop-opacity="0"/>
<stop offset="0.922261" stop-color="#055ABA" stop-opacity="0.05"/>
<stop offset="1" stop-color="#055ABA" stop-opacity="0.1"/>
</radialGradient>
<radialGradient id="paint1_radial_6207_2404" cx="0" cy="0" r="1" gradientUnits="userSpaceOnUse" gradientTransform="translate(578.73 578.73) rotate(90) scale(520.393)">
<stop offset="0.724841" stop-color="#055ABA" stop-opacity="0.04"/>
<stop offset="0.86242" stop-color="#055ABA" stop-opacity="0.08"/>
<stop offset="1" stop-color="#055ABA" stop-opacity="0.1"/>
</radialGradient>
<radialGradient id="paint2_radial_6207_2404" cx="0" cy="0" r="1" gradientUnits="userSpaceOnUse" gradientTransform="translate(578.73 578.73) rotate(90) scale(381.18)">
<stop offset="0.724841" stop-color="#055ABA" stop-opacity="0.04"/>
<stop offset="0.86242" stop-color="#055ABA" stop-opacity="0.08"/>
<stop offset="1" stop-color="#055ABA" stop-opacity="0.1"/>
</radialGradient>
<radialGradient id="paint3_radial_6207_2404" cx="0" cy="0" r="1" gradientUnits="userSpaceOnUse" gradientTransform="translate(579.393 579.393) rotate(90) scale(253.236)">
<stop offset="0.724841" stop-color="#055ABA" stop-opacity="0.04"/>
<stop offset="0.86242" stop-color="#055ABA" stop-opacity="0.08"/>
<stop offset="1" stop-color="#055ABA" stop-opacity="0.1"/>
</radialGradient>
<radialGradient id="paint4_radial_6207_2404" cx="0" cy="0" r="1" gradientUnits="userSpaceOnUse" gradientTransform="translate(578.731 578.73) rotate(90) scale(137.225)">
<stop offset="0.724841" stop-color="#055ABA" stop-opacity="0.04"/>
<stop offset="0.86242" stop-color="#055ABA" stop-opacity="0.08"/>
<stop offset="1" stop-color="#055ABA" stop-opacity="0.1"/>
</radialGradient>
<clipPath id="clip0_6207_2404">
<rect width="32" height="32" fill="white" transform="translate(777.91 185.91)"/>
</clipPath>
</defs>
</svg>
